<?xml version="1.0" encoding="UTF-8" standalone="no"?>
<!-- Created with Inkscape (http://www.inkscape.org/) -->

<svg
   xmlns:dc="http://purl.org/dc/elements/1.1/"
   xmlns:cc="http://creativecommons.org/ns#"
   xmlns:rdf="http://www.w3.org/1999/02/22-rdf-syntax-ns#"
   xmlns:svg="http://www.w3.org/2000/svg"
   xmlns="http://www.w3.org/2000/svg"
   xmlns:sodipodi="http://sodipodi.sourceforge.net/DTD/sodipodi-0.dtd"
   xmlns:inkscape="http://www.inkscape.org/namespaces/inkscape"
   width="64mm"
   height="64mm"
   viewBox="0 0 64.000002 64.000002"
   version="1.1"
   id="svg841"
   inkscape:version="0.92.4 (5da689c313, 2019-01-14)"
   sodipodi:docname="icon_config.svg">
  <defs
     id="defs835" />
  <sodipodi:namedview
     id="base"
     pagecolor="#ffffff"
     bordercolor="#666666"
     borderopacity="1.0"
     inkscape:pageopacity="0.0"
     inkscape:pageshadow="2"
     inkscape:zoom="1.8174855"
     inkscape:cx="-51.368581"
     inkscape:cy="41.494456"
     inkscape:document-units="mm"
     inkscape:current-layer="layer1"
     showgrid="true"
     units="mm"
     inkscape:window-width="1805"
     inkscape:window-height="1057"
     inkscape:window-x="-8"
     inkscape:window-y="-8"
     inkscape:window-maximized="1"
     inkscape:snap-grids="false"
     viewbox-x="100"
     viewbox-y="8.5"
     viewbox-height="50"
     scale-x="1">
    <inkscape:grid
       type="xygrid"
       id="grid1386"
       snapvisiblegridlinesonly="false"
       dotted="false"
       empspacing="8"
       units="mm"
       spacingx="1"
       spacingy="1" />
  </sodipodi:namedview>
  <metadata
     id="metadata838">
    <rdf:RDF>
      <cc:Work
         rdf:about="">
        <dc:format>image/svg+xml</dc:format>
        <dc:type
           rdf:resource="http://purl.org/dc/dcmitype/StillImage" />
        <dc:title></dc:title>
      </cc:Work>
    </rdf:RDF>
  </metadata>
  <g
     inkscape:label="レイヤー 1"
     inkscape:groupmode="layer"
     id="layer1"
     transform="translate(0,0)">
    <path
       id="path4592"
       style="fill:#000000;stroke:none;stroke-width:0.13330488;stroke-opacity:1;fill-opacity:1"
       d="m 34.250547,42.162138 c 3.589299,-0.737673 6.425081,-3.230233 7.564514,-6.648964 0.973683,-2.921416 0.672775,-6.155366 -0.82371,-8.852631 -0.594278,-1.071128 -2.453466,-2.958036 -3.545613,-3.598479 -3.736099,-2.190876 -8.890714,-1.803626 -12.129128,0.911224 -3.357278,2.814495 -4.563795,7.461179 -3.048875,11.742172 0.530948,1.50039 1.138287,2.445913 2.348392,3.656007 1.519332,1.519333 3.028232,2.348262 5.063107,2.781452 1.24476,0.264993 3.30656,0.269151 4.571313,0.0094 z M 29.651354,60.269 C 28.95349,60.2157 28.190265,60.10766 27.955298,60.02899 27.17882,59.76904 27.136131,59.63561 26.655738,55.96716 26.41584,54.1352 26.176236,52.59674 26.123286,52.54835 c -0.05295,-0.0484 -0.377914,-0.17852 -0.722144,-0.28918 -0.830882,-0.26711 -2.921501,-1.156 -3.383324,-1.43851 -0.202268,-0.12374 -0.425444,-0.18932 -0.495947,-0.14575 -0.103083,0.0637 -4.783172,3.64413 -5.309056,4.0616 -0.0779,0.0618 -0.350719,0.10955 -0.606274,0.10602 -0.362845,-0.005 -0.593598,-0.10634 -1.05322,-0.46252 -1.683441,-1.30454 -3.816606,-3.44498 -4.930439,-4.94724 -0.515222,-0.6949 -0.611748,-1.11626 -0.36381,-1.5881 0.111002,-0.21124 2.717145,-3.65835 3.780166,-4.99997 l 0.338493,-0.42721 -0.554608,-1.15636 c -0.305034,-0.636 -0.736442,-1.67274 -0.958684,-2.30387 l -0.404077,-1.14751 -0.568526,-0.0903 C 10.579146,37.66985 9.025074,37.45857 7.4383408,37.25003 4.7817561,36.9009 4.5311437,36.84866 4.2725886,36.5901 4.1181581,36.43567 3.9408711,36.10923 3.8786175,35.86467 c -0.181775,-0.71409 -0.2606,-5.540911 -0.1111771,-6.807889 0.1436147,-1.217729 0.3104915,-1.652797 0.71417,-1.861929 0.1461608,-0.07572 1.6739595,-0.317911 3.3951081,-0.5382 3.5340915,-0.452327 3.6414385,-0.470953 3.6414385,-0.631857 0,-0.226489 0.827561,-2.339335 1.324906,-3.382615 0.277125,-0.581326 0.467045,-1.119007 0.422042,-1.194847 -0.045,-0.07584 -0.575134,-0.777988 -1.178072,-1.560328 -2.886442,-3.745296 -2.95857,-3.850174 -2.95857,-4.301908 0,-0.35333 0.129826,-0.592367 0.755413,-1.390876 1.430326,-1.82569 4.724281,-4.8897639 5.453321,-5.0727409 0.152668,-0.03832 0.398996,-0.03919 0.547394,-0.0019 0.148398,0.03725 1.414624,0.9457649 2.813836,2.0189329 1.399211,1.073168 2.630881,2.005459 2.737043,2.071758 0.151443,0.09458 0.458408,-0.0046 1.425025,-0.460638 0.677603,-0.31965 1.691037,-0.741613 2.252076,-0.937694 0.561039,-0.196081 1.036333,-0.372773 1.056209,-0.392649 0.01987,-0.01988 0.237697,-1.5539619 0.484046,-3.4090799 0.24635,-1.855119 0.502284,-3.4745449 0.568743,-3.5987239 0.200111,-0.373913 0.676768,-0.534051 1.991704,-0.669139 2.413321,-0.247929 6.401398,-0.08813 7.13726,0.285977 0.170259,0.08656 0.367911,0.266406 0.439225,0.399659 0.07132,0.133252 0.327705,1.7531349 0.569759,3.5997389 0.242052,1.846604 0.4559,3.3732669 0.475216,3.3925839 0.01932,0.01932 0.494155,0.195552 1.055194,0.391633 0.56104,0.196081 1.567607,0.614783 2.236817,0.930448 0.669209,0.315665 1.283702,0.547172 1.365539,0.514459 0.08184,-0.03271 1.32,-0.961649 2.751475,-2.064304 1.431474,-1.102656 2.724469,-2.0353949 2.873322,-2.0727549 0.148853,-0.03736 0.395496,-0.03659 0.548094,0.0017 0.602488,0.151215 3.220416,2.4809109 4.662172,4.1488689 1.24289,1.437892 1.546689,1.900537 1.546689,2.355403 0,0.406869 -0.230417,0.742604 -2.718127,3.960531 -0.767241,0.992448 -1.419141,1.867406 -1.448668,1.944349 -0.02952,0.07694 0.176192,0.601792 0.457151,1.166328 0.28096,0.564537 0.699331,1.572106 0.929715,2.239042 0.3322,0.96168 0.4689,1.223738 0.660597,1.266384 0.132943,0.02957 1.641009,0.234458 3.351259,0.455295 1.710249,0.220836 3.249315,0.473799 3.420144,0.562138 0.427948,0.221301 0.545258,0.537959 0.703479,1.89893 0.150018,1.290411 0.07977,5.818564 -0.103695,6.684084 -0.05789,0.27312 -0.233848,0.62517 -0.391012,0.78233 -0.264879,0.26488 -0.496479,0.31345 -3.170721,0.6649 -1.586733,0.20854 -3.139856,0.41977 -3.451385,0.46942 l -0.566414,0.0903 -0.429739,1.19484 c -0.236357,0.65717 -0.666789,1.6899 -0.956518,2.29496 l -0.526779,1.1001 2.120357,2.75757 c 2.492751,3.24187 2.459883,3.15206 1.586067,4.33368 -0.705903,0.95456 -3.881883,4.13353 -4.798144,4.80266 -0.560532,0.40935 -0.821336,0.52853 -1.156544,0.52853 -0.477009,0 -0.690567,-0.14412 -3.980159,-2.68611 -0.970102,-0.74963 -1.822326,-1.39889 -1.893831,-1.44279 -0.07151,-0.0439 -0.711602,0.19742 -1.422437,0.53628 -0.710835,0.33885 -1.702089,0.75621 -2.202787,0.92746 -0.500698,0.17126 -0.950564,0.34606 -0.999701,0.38845 -0.04914,0.0424 -0.290446,1.6036 -0.53624,3.46935 -0.395411,3.00145 -0.476035,3.42328 -0.699811,3.66148 -0.335956,0.35761 -0.773287,0.45904 -2.594831,0.60185 -1.711123,0.13414 -2.552848,0.13241 -4.403907,-0.009 z" />
  </g>
</svg>
