<?xml version="1.0" encoding="UTF-8" standalone="no"?>
<!-- Created with Inkscape (http://www.inkscape.org/) -->

<svg
   xmlns:dc="http://purl.org/dc/elements/1.1/"
   xmlns:cc="http://creativecommons.org/ns#"
   xmlns:rdf="http://www.w3.org/1999/02/22-rdf-syntax-ns#"
   xmlns:svg="http://www.w3.org/2000/svg"
   xmlns="http://www.w3.org/2000/svg"
   xmlns:sodipodi="http://sodipodi.sourceforge.net/DTD/sodipodi-0.dtd"
   xmlns:inkscape="http://www.inkscape.org/namespaces/inkscape"
   width="64mm"
   height="64mm"
   viewBox="0 0 64.000002 64.000002"
   version="1.1"
   id="svg841"
   inkscape:version="0.92.4 (5da689c313, 2019-01-14)"
   sodipodi:docname="icon_grid.svg">
  <defs
     id="defs835" />
  <sodipodi:namedview
     id="base"
     pagecolor="#ffffff"
     bordercolor="#666666"
     borderopacity="1.0"
     inkscape:pageopacity="0.0"
     inkscape:pageshadow="2"
     inkscape:zoom="1.2851563"
     inkscape:cx="-59.162569"
     inkscape:cy="64.87904"
     inkscape:document-units="mm"
     inkscape:current-layer="layer1"
     showgrid="true"
     units="mm"
     inkscape:window-width="1805"
     inkscape:window-height="1057"
     inkscape:window-x="-8"
     inkscape:window-y="-8"
     inkscape:window-maximized="1"
     inkscape:snap-grids="true"
     viewbox-x="100"
     viewbox-y="8.5"
     viewbox-height="50"
     scale-x="1">
    <inkscape:grid
       type="xygrid"
       id="grid1386"
       snapvisiblegridlinesonly="false"
       dotted="false"
       empspacing="8"
       units="mm"
       spacingx="1"
       spacingy="1" />
  </sodipodi:namedview>
  <metadata
     id="metadata838">
    <rdf:RDF>
      <cc:Work
         rdf:about="">
        <dc:format>image/svg+xml</dc:format>
        <dc:type
           rdf:resource="http://purl.org/dc/dcmitype/StillImage" />
        <dc:title />
      </cc:Work>
    </rdf:RDF>
  </metadata>
  <g
     inkscape:label="レイヤー 1"
     inkscape:groupmode="layer"
     id="layer1"
     transform="translate(0,0)">
    <path
       style="color:#000000;font-style:normal;font-variant:normal;font-weight:normal;font-stretch:normal;font-size:medium;line-height:normal;font-family:sans-serif;font-variant-ligatures:normal;font-variant-position:normal;font-variant-caps:normal;font-variant-numeric:normal;font-variant-alternates:normal;font-feature-settings:normal;text-indent:0;text-align:start;text-decoration:none;text-decoration-line:none;text-decoration-style:solid;text-decoration-color:#000000;letter-spacing:normal;word-spacing:normal;text-transform:none;writing-mode:lr-tb;direction:ltr;text-orientation:mixed;dominant-baseline:auto;baseline-shift:baseline;text-anchor:start;white-space:normal;shape-padding:0;clip-rule:nonzero;display:inline;overflow:visible;visibility:visible;opacity:1;isolation:auto;mix-blend-mode:normal;color-interpolation:sRGB;color-interpolation-filters:linearRGB;solid-color:#000000;solid-opacity:1;vector-effect:none;fill:#000000;fill-opacity:1;fill-rule:nonzero;stroke:none;stroke-width:2.79311776;stroke-linecap:square;stroke-linejoin:miter;stroke-miterlimit:4;stroke-dasharray:none;stroke-dashoffset:0;stroke-opacity:1;color-rendering:auto;image-rendering:auto;shape-rendering:auto;text-rendering:auto;enable-background:accumulate"
       d="m 32,2.6989904 c -16.161799,0 -29.3010092,13.1392246 -29.3010092,29.3010106 0,16.161816 13.1392102,29.301009 29.3010092,29.301009 16.161801,0 29.301009,-13.139193 29.301009,-29.301009 C 61.301009,15.838216 48.161798,2.6989904 32,2.6989904 Z m 0,3.301091 c 0.186069,0 0.371182,0.00327 0.556307,0.00714 0.284001,0.2188608 0.637403,0.6000857 1.033506,1.2483717 0.736784,1.2058742 1.481865,3.1268349 2.106818,5.5452019 0.486943,1.884283 0.905218,4.073374 1.235611,6.485816 C 35.328567,19.170271 33.682834,19.10645 32,19.10645 c -1.682653,0 -3.328723,0.06384 -4.932242,0.180161 0.330397,-2.412442 0.748162,-4.601532 1.235104,-6.485816 0.624953,-2.418367 1.370547,-4.3393276 2.107329,-5.5452019 0.3961,-0.6483302 0.748992,-1.0295231 1.032992,-1.2483717 0.185155,-0.00387 0.370722,-0.00714 0.556817,-0.00714 z m -4.427993,0.6155093 c -0.7677,1.4781991 -1.417377,3.3187098 -1.977184,5.4849773 -0.564844,2.185752 -1.032596,4.701192 -1.386172,7.457567 -2.873809,0.339991 -5.571358,0.862679 -8.015915,1.547961 0.903568,-2.968 2.156172,-5.637107 3.674684,-7.87199 2.15795,-3.175945 4.799643,-5.4595273 7.704587,-6.6185153 z m 8.855986,0.00102 c 2.901771,1.1592815 5.539568,3.4424023 7.696932,6.6174943 1.518315,2.234592 2.771902,4.903434 3.677237,7.870969 -2.443293,-0.684648 -5.138858,-1.207156 -8.01081,-1.546941 C 39.437774,16.801757 38.969513,14.286318 38.404669,12.100566 37.84498,9.9347595 37.195481,8.0946508 36.427993,6.6166107 Z m 8.111355,2.5952452 C 50.706681,12.607747 55.34083,18.433483 57.158315,25.407006 55.759724,24.33246 54.050885,23.391437 52.089292,22.575457 51.734874,22.428029 51.370455,22.285408 50.999647,22.146235 50.016057,18.194349 48.452222,14.632539 46.437424,11.667262 45.845262,10.795751 45.210661,9.9756315 44.539348,9.2118559 Z m -25.079206,5.24e-4 c -0.671159,0.7636396 -1.305525,1.5835601 -1.897565,2.4548921 -2.014798,2.965277 -3.578634,6.527087 -4.562221,10.478974 -0.370821,0.139177 -0.735218,0.281789 -1.089647,0.429223 -1.9613368,0.815872 -3.670538,1.75667 -5.0690227,2.831038 C 8.6592009,18.433433 13.29326,12.608237 19.460142,9.2123776 Z M 32,21.898205 c 1.803552,0 3.564126,0.07531 5.267047,0.215377 0.309472,3.059217 0.483323,6.394695 0.483323,9.88643 0,3.49175 -0.173851,6.826698 -0.483323,9.885919 -1.702929,0.140068 -3.463484,0.21589 -5.267047,0.21589 -1.803384,0 -3.564272,-0.07585 -5.267047,-0.21589 -0.309471,-3.059221 -0.483832,-6.394169 -0.483832,-9.885919 0,-3.491735 0.174361,-6.827213 0.483832,-9.88643 C 28.435718,21.973543 30.196629,21.898205 32,21.898205 Z m -8.108801,0.515986 c -0.281532,2.996261 -0.433817,6.221096 -0.433817,9.585821 0,3.364751 0.152284,6.58955 0.433817,9.585822 -3.13725,-0.409341 -6.011912,-1.049199 -8.504341,-1.859799 -0.501238,-2.441004 -0.775766,-5.034548 -0.775766,-7.726023 0,-2.691643 0.274464,-5.285391 0.775766,-7.726533 2.492394,-0.810601 5.367148,-1.449948 8.504341,-1.859288 z m 16.217094,0 c 3.136354,0.409231 6.010365,1.048486 8.502299,1.858778 0.502655,2.441289 0.778317,5.035214 0.778317,7.727043 0,2.691841 -0.275662,5.285753 -0.778317,7.727042 -2.491934,0.810271 -5.36595,1.449557 -8.502299,1.85878 0.281531,-2.996272 0.433817,-6.221071 0.433817,-9.585822 0,-3.364728 -0.152286,-6.58956 -0.433817,-9.585821 z M 12.33738,25.436098 c -0.336086,2.111381 -0.518028,4.306452 -0.518028,6.563903 0,2.257454 0.181942,4.452525 0.518028,6.563904 -2.076893,-0.929332 -3.7264129,-1.993572 -4.8311883,-3.0801 -0.7165609,-0.704693 -1.1922077,-1.393291 -1.4673218,-2.072111 -0.024929,-0.467532 -0.038788,-0.937861 -0.038788,-1.411693 0,-0.473676 0.013875,-0.944312 0.038788,-1.41169 0.2751057,-0.678859 0.7507165,-1.367353 1.4673218,-2.072113 1.1047754,-1.086526 2.7542953,-2.150807 4.8311883,-3.0801 z m 39.324729,0 c 2.076896,0.929293 3.726414,1.993574 4.831188,3.0801 0.716776,0.704927 1.192759,1.393607 1.467833,2.072623 0.0249,0.467213 0.03827,0.937674 0.03827,1.41118 0,0.47366 -0.01338,0.943818 -0.03827,1.41118 -0.275082,0.678977 -0.751102,1.367765 -1.467833,2.072624 -1.104774,1.086528 -2.754292,2.150768 -4.831188,3.0801 0.336093,-2.111392 0.518537,-4.306434 0.51854,-6.563904 0,-2.257469 -0.182447,-4.452509 -0.51854,-6.563903 z m 5.496206,13.156898 c -1.817537,6.97365 -6.451971,12.799311 -12.619476,16.195147 0.671461,-0.763903 1.306306,-1.583716 1.898585,-2.455402 2.014715,-2.965177 3.578626,-6.527278 4.562223,-10.478972 0.370808,-0.139237 0.735227,-0.281795 1.089645,-0.429224 1.961593,-0.815959 3.670432,-1.757004 5.069023,-2.831549 z m -50.3166287,5.23e-4 c 1.3984847,1.074369 3.1076859,2.015188 5.0690227,2.831039 0.354429,0.147434 0.718826,0.289982 1.089647,0.429224 0.983594,3.951694 2.547505,7.513794 4.562221,10.478972 0.592299,0.871712 1.2271,1.691479 1.898587,2.455403 C 13.293802,51.392388 8.6593117,45.566936 6.8416863,38.593506 Z m 9.3515607,4.301422 c 2.44472,0.686453 5.142419,1.210687 8.016424,1.552043 0.353494,2.754192 0.820689,5.267673 1.385152,7.451953 0.559771,2.166094 1.209547,4.006811 1.977184,5.484976 -2.904909,-1.159025 -5.54666,-3.442608 -7.704587,-6.618527 -1.518328,-2.234592 -2.770629,-4.902892 -3.674173,-7.870458 z m 31.608915,0.0011 c -0.905315,2.967158 -2.159081,5.635097 -3.677237,7.869435 -2.157343,3.175065 -4.795198,5.458188 -7.696932,6.617494 0.767424,-1.478009 1.417024,-3.318321 1.976676,-5.483956 0.564463,-2.184279 1.032167,-4.69776 1.38566,-7.451952 2.872335,-0.341171 5.568253,-0.865138 8.011833,-1.551021 z M 27.06878,44.720112 c 1.603192,0.116825 3.248927,0.180671 4.93122,0.180671 1.682473,0 3.327872,-0.06382 4.931223,-0.180671 -0.330257,2.409833 -0.748094,4.596613 -1.234592,6.479182 -0.624953,2.418356 -1.370034,4.339275 -2.106818,5.545199 -0.396137,0.648362 -0.749492,1.029526 -1.033506,1.248373 -0.185125,0.0039 -0.37024,0.0067 -0.556307,0.0067 -0.186095,0 -0.371662,-0.0028 -0.556817,-0.0067 C 31.15917,57.77401 30.806327,57.392827 30.410191,56.744493 29.673409,55.538569 28.927815,53.61765 28.302862,51.199294 27.816364,49.316725 27.399035,47.129945 27.06878,44.720112 Z"
       id="path4737-1"
       inkscape:connector-curvature="0" />
  </g>
</svg>
